<?xml version="1.0" standalone="no"?>
<!DOCTYPE svg PUBLIC "-//W3C//DTD SVG 20010904//EN"
 "http://www.w3.org/TR/2001/REC-SVG-20010904/DTD/svg10.dtd">
<svg version="1.0" xmlns="http://www.w3.org/2000/svg"
 width="204.000000pt" height="204.000000pt" viewBox="0 0 204.000000 204.000000"
 preserveAspectRatio="xMidYMid meet">
<metadata>
Created by potrace 1.11, written by Peter Selinger 2001-2013
</metadata>
<g transform="translate(0.000000,204.000000) scale(0.100000,-0.100000)"
fill="#000000" stroke="none">
<path d="M68 1813 c-14 -9 -31 -27 -37 -40 -8 -17 -11 -266 -11 -793 l0 -770
140 0 140 0 32 29 33 29 2 214 c1 117 2 217 2 221 1 5 35 -33 77 -85 259 -317
308 -372 345 -391 32 -15 61 -17 219 -15 l183 3 -63 75 c-34 41 -69 84 -78 95
-10 11 -98 119 -197 240 -98 121 -184 223 -189 227 -10 7 -6 13 44 74 14 17
43 52 65 79 22 27 54 67 72 89 l32 41 201 0 c128 0 200 -3 201 -10 0 -5 2
-161 3 -345 2 -184 6 -344 10 -355 34 -89 80 -143 152 -180 58 -30 61 -30 249
-33 265 -5 275 1 275 182 l0 103 -142 0 -142 1 -28 31 -28 31 0 285 c0 157 3
286 8 286 4 1 41 2 82 4 135 4 207 21 256 62 38 32 44 58 44 187 l0 125 -36
-24 c-20 -14 -53 -30 -73 -36 -36 -11 -269 -28 -277 -20 -2 2 -4 94 -4 203 l0
198 -140 0 -140 0 -32 -29 -33 -29 -1 -166 c0 -92 -3 -168 -5 -171 -3 -2 -119
-6 -259 -7 -335 -4 -320 3 -518 -242 -54 -66 -106 -130 -117 -143 l-20 -24 1
405 1 406 -136 0 c-109 0 -141 -4 -163 -17z"/>
</g>
</svg>
